# xmcd
#
# Track frame offsets:
#	150
#	16176
#	32114
#	48921
#	65443
#	81474
#	96926
#	111251
#	129036
#	143063
#
# Disc length: 2145 seconds
#
# Revision: 0
# Processed by: cddbd v1.5PL3 Copyright (c) Steve Scherf et al.
# Submitted via: audiograbber 1.82.01
#
DISCID=7e085f0a
DTITLE=Lindsay Jane - Starting Today
DYEAR=1900
DGENRE=
TTITLE0=Lindsay Jane - Starting Today
TTITLE1=Lindsay Jane - Let Go
TTITLE2=Lindsay Jane - Dear Abby
TTITLE3=Lindsay Jane - Tough Luck
TTITLE4=Lindsay Jane - So Wrong
TTITLE5=Lindsay Jane - Fooling Yourself
TTITLE6=Lindsay Jane - Heard You Lost Your Love Today
TTITLE7=Lindsay Jane - Bags Are Packed
TTITLE8=Lindsay Jane - So Close To Home
TTITLE9=Lindsay Jane - It´s Not Up To Me
EXTD=
EXTT0=
EXTT1=
EXTT2=
EXTT3=
EXTT4=
EXTT5=
EXTT6=
EXTT7=
EXTT8=
EXTT9=
PLAYORDER=
